<svg xmlns="http://www.w3.org/2000/svg" xmlns:xlink="http://www.w3.org/1999/xlink" viewBox="0 0 551.56 570.28"><defs><style>.cls-1{isolation:isolate;}.cls-2{fill:#ac793e;}.cls-3{fill:#613424;}.cls-4{fill:#3b2418;}.cls-5{fill:#965644;}.cls-6{fill:#80b5ac;}.cls-7{fill:#844226;}.cls-8{fill:#63968c;}.cls-9{fill:#446b5d;}.cls-10{fill:#3c5640;}.cls-11,.cls-57{fill:#533122;}.cls-12{fill:#2a3f36;}.cls-13{fill:#496e69;}.cls-14{fill:#22221a;}.cls-15{fill:#93baaf;}.cls-16{fill:#8abdbe;}.cls-17{fill:#7cb3a2;}.cls-18{fill:#82b9b7;}.cls-19{fill:#a3cbd1;}.cls-20{fill:#7eb6b3;}.cls-21{fill:url(#linear-gradient);}.cls-22{fill:none;}.cls-23{fill:url(#linear-gradient-2);}.cls-24{fill:url(#linear-gradient-3);}.cls-25{fill:url(#linear-gradient-4);}.cls-26{fill:url(#linear-gradient-5);}.cls-27{fill:url(#linear-gradient-6);}.cls-28{fill:url(#linear-gradient-7);}.cls-29{fill:url(#linear-gradient-8);}.cls-30{fill:url(#linear-gradient-9);}.cls-31{fill:url(#linear-gradient-10);}.cls-32{fill:#f9fafa;}.cls-33{fill:url(#linear-gradient-11);}.cls-34{fill:url(#linear-gradient-12);}.cls-35{fill:url(#linear-gradient-13);}.cls-36{fill:url(#linear-gradient-14);}.cls-37{fill:url(#linear-gradient-15);}.cls-38{fill:url(#linear-gradient-16);}.cls-39{fill:url(#linear-gradient-17);}.cls-40{fill:url(#linear-gradient-18);}.cls-41{fill:url(#linear-gradient-19);}.cls-42{fill:url(#linear-gradient-20);}.cls-43{fill:url(#linear-gradient-21);}.cls-44{fill:url(#linear-gradient-22);}.cls-45{fill:url(#linear-gradient-23);}.cls-46{fill:url(#linear-gradient-24);}.cls-47{fill:url(#linear-gradient-25);}.cls-48{opacity:0.78;mix-blend-mode:screen;}.cls-49{fill:url(#linear-gradient-26);}.cls-50{fill:url(#linear-gradient-27);}.cls-51{fill:url(#linear-gradient-28);}.cls-52{fill:url(#linear-gradient-29);}.cls-53{fill:url(#linear-gradient-30);}.cls-54{fill:url(#linear-gradient-31);}.cls-55{fill:url(#linear-gradient-32);}.cls-56{fill:url(#linear-gradient-33);}.cls-57{opacity:0.46;}.cls-58,.cls-59,.cls-60,.cls-61,.cls-62{mix-blend-mode:multiply;}.cls-59,.cls-61{fill:#c2c3c8;}.cls-60{opacity:0.18;}.cls-61{opacity:0.35;}.cls-62{opacity:0.42;}</style><linearGradient id="linear-gradient" x1="168.42" y1="70.17" x2="136.5" y2="138.94" gradientTransform="matrix(1, -0.02, 0.02, 1, -4.16, 30.33)" gradientUnits="userSpaceOnUse"><stop offset="0.01" stop-color="#c4dee1"/><stop offset="0.17" stop-color="#b9ced5"/><stop offset="0.44" stop-color="#aabbc7"/><stop offset="0.71" stop-color="#a2afbe"/><stop offset="0.98" stop-color="#9fabbb"/></linearGradient><linearGradient id="linear-gradient-2" x1="213.89" y1="63.71" x2="249.97" y2="17.89" gradientTransform="matrix(1, -0.02, 0.02, 1, -4.16, 30.33)" gradientUnits="userSpaceOnUse"><stop offset="0" stop-color="#e4f0f2"/><stop offset="1" stop-color="#f4f8f4"/></linearGradient><linearGradient id="linear-gradient-3" x1="212.83" y1="55.47" x2="206.55" y2="-31.58" gradientTransform="matrix(1, -0.02, 0.02, 1, -4.16, 30.33)" gradientUnits="userSpaceOnUse"><stop offset="0" stop-color="#e4f0f2"/><stop offset="1" stop-color="#c0d7b2"/></linearGradient><linearGradient id="linear-gradient-4" x1="212.66" y1="8.36" x2="232.17" y2="8.36" gradientTransform="matrix(1, -0.02, 0.02, 1, -4.16, 30.33)" gradientUnits="userSpaceOnUse"><stop offset="0" stop-color="#d2dff0"/><stop offset="1" stop-color="#c7dfe2"/></linearGradient><linearGradient id="linear-gradient-5" x1="184.58" y1="70.17" x2="183.74" y2="96.17" gradientTransform="matrix(1, -0.02, 0.02, 1, -4.16, 30.33)" gradientUnits="userSpaceOnUse"><stop offset="0.01" stop-color="#dcecf2"/><stop offset="0.12" stop-color="#d8e8f0"/><stop offset="0.55" stop-color="#cddceb"/><stop offset="0.98" stop-color="#c9d8e9"/></linearGradient><linearGradient id="linear-gradient-6" x1="253.86" y1="41.41" x2="245.95" y2="78.54" gradientTransform="matrix(1, -0.02, 0.02, 1, -4.16, 30.33)" gradientUnits="userSpaceOnUse"><stop offset="0.01" stop-color="#e0eacd"/><stop offset="0.98" stop-color="#c9d8e9"/></linearGradient><linearGradient id="linear-gradient-7" x1="249.28" y1="19.2" x2="249.81" y2="38.09" gradientTransform="matrix(1, -0.02, 0.02, 1, -4.16, 30.33)" gradientUnits="userSpaceOnUse"><stop offset="0.01" stop-color="#bbd2a3"/><stop offset="0.98" stop-color="#9fabbb"/></linearGradient><linearGradient id="linear-gradient-8" x1="150.66" y1="126.86" x2="215.5" y2="126.86" xlink:href="#linear-gradient-6"/><linearGradient id="linear-gradient-9" x1="199.98" y1="126.86" x2="263.25" y2="126.86" gradientTransform="matrix(1, -0.02, 0.02, 1, -4.16, 30.33)" gradientUnits="userSpaceOnUse"><stop offset="0" stop-color="#a4bbb4"/><stop offset="0.98" stop-color="#98aaa7"/></linearGradient><linearGradient id="linear-gradient-10" x1="215.5" y1="101.64" x2="280.36" y2="101.64" gradientTransform="matrix(1, -0.02, 0.02, 1, -4.16, 30.33)" gradientUnits="userSpaceOnUse"><stop offset="0.01" stop-color="#f9f9f1"/><stop offset="0.98" stop-color="#a6b3d2"/></linearGradient><linearGradient id="linear-gradient-11" x1="215.5" y1="53.77" x2="288.02" y2="53.77" gradientTransform="matrix(1, -0.02, 0.02, 1, -4.16, 30.33)" gradientUnits="userSpaceOnUse"><stop offset="0" stop-color="#dbe9dd"/><stop offset="0.98" stop-color="#f9f9df"/></linearGradient><linearGradient id="linear-gradient-12" x1="314.48" y1="46.67" x2="313.97" y2="100.71" xlink:href="#linear-gradient-4"/><linearGradient id="linear-gradient-13" x1="199.98" y1="138" x2="308.68" y2="138" xlink:href="#linear-gradient-5"/><linearGradient id="linear-gradient-14" x1="263.25" y1="118.96" x2="308.68" y2="118.96" gradientTransform="matrix(1, -0.02, 0.02, 1, -4.16, 30.33)" gradientUnits="userSpaceOnUse"><stop offset="0" stop-color="#bfd8c3"/><stop offset="1" stop-color="#f0f5ec"/></linearGradient><linearGradient id="linear-gradient-15" x1="311.98" y1="37.77" x2="336.88" y2="85.14" xlink:href="#linear-gradient-10"/><linearGradient id="linear-gradient-16" x1="280.36" y1="118.96" x2="375.74" y2="118.96" gradientTransform="matrix(1, -0.02, 0.02, 1, -4.16, 30.33)" gradientUnits="userSpaceOnUse"><stop offset="0" stop-color="#e4f0f2"/><stop offset="0.49" stop-color="#d4e5d5"/><stop offset="1" stop-color="#c0d7b2"/></linearGradient><linearGradient id="linear-gradient-17" x1="280.36" y1="107.85" x2="375.74" y2="107.85" xlink:href="#linear-gradient"/><linearGradient id="linear-gradient-18" x1="345.75" y1="47.21" x2="352.85" y2="74.61" gradientTransform="matrix(1, -0.02, 0.02, 1, -4.16, 30.33)" gradientUnits="userSpaceOnUse"><stop offset="0" stop-color="#ebf3ef"/><stop offset="1" stop-color="#f5f9f6"/></linearGradient><linearGradient id="linear-gradient-19" x1="347.93" y1="107.85" x2="399.91" y2="107.85" xlink:href="#linear-gradient-9"/><linearGradient id="linear-gradient-20" x1="370.04" y1="84.45" x2="363.41" y2="57.54" xlink:href="#linear-gradient-16"/><linearGradient id="linear-gradient-21" x1="173.89" y1="54.95" x2="178" y2="26.87" xlink:href="#linear-gradient-14"/><linearGradient id="linear-gradient-22" x1="201.87" y1="59.09" x2="196.36" y2="33.62" xlink:href="#linear-gradient-14"/><linearGradient id="linear-gradient-23" x1="186.07" y1="109.58" x2="213.34" y2="109.58" gradientTransform="matrix(1, 0, 0, 1, 0, 0)" xlink:href="#linear-gradient-9"/><linearGradient id="linear-gradient-24" x1="254.5" y1="-6.53" x2="251.8" y2="24.08" gradientTransform="matrix(1, -0.02, 0.02, 1, -4.16, 30.33)" gradientUnits="userSpaceOnUse"><stop offset="0.01" stop-color="#ecf3eb"/><stop offset="0.02" stop-color="#ebf3eb"/><stop offset="0.34" stop-color="#d8e8e1"/><stop offset="0.66" stop-color="#cce1dc"/><stop offset="0.98" stop-color="#c8dfda"/></linearGradient><linearGradient id="linear-gradient-25" x1="213.86" y1="37.74" x2="213.86" y2="-27.34" xlink:href="#linear-gradient-2"/><linearGradient id="linear-gradient-26" x1="1318.62" y1="2334.38" x2="1392.88" y2="2334.38" gradientTransform="matrix(-1, 0.02, -0.02, -1, 1767.12, 2608.17)" gradientUnits="userSpaceOnUse"><stop offset="0.01" stop-color="#c0cbae"/><stop offset="0.98" stop-color="#a8b4c5"/></linearGradient><linearGradient id="linear-gradient-27" x1="1342.8" y1="2326.77" x2="1392.88" y2="2326.77" gradientTransform="matrix(-1, 0.02, -0.02, -1, 1767.12, 2608.17)" gradientUnits="userSpaceOnUse"><stop offset="0" stop-color="#859790"/><stop offset="0.98" stop-color="#7a8784"/></linearGradient><linearGradient id="linear-gradient-28" x1="1391.62" y1="2275.73" x2="1462.35" y2="2275.73" gradientTransform="matrix(-1, 0.02, -0.02, -1, 1767.12, 2608.17)" gradientUnits="userSpaceOnUse"><stop offset="0.01" stop-color="#d8d7d0"/><stop offset="0.98" stop-color="#8791ac"/></linearGradient><linearGradient id="linear-gradient-29" x1="1342.8" y1="2429.76" x2="1409.85" y2="2429.76" gradientTransform="matrix(-1, 0.02, -0.02, -1, 1767.12, 2608.17)" gradientUnits="userSpaceOnUse"><stop offset="0.01" stop-color="#bccdd4"/><stop offset="0.21" stop-color="#b5c4ce"/><stop offset="0.59" stop-color="#abb8c7"/><stop offset="0.98" stop-color="#a8b4c5"/></linearGradient><linearGradient id="linear-gradient-30" x1="1391.62" y1="2382.65" x2="1462.35" y2="2382.65" gradientTransform="matrix(-1, 0.02, -0.02, -1, 1767.12, 2608.17)" gradientUnits="userSpaceOnUse"><stop offset="0" stop-color="#a1b8a3"/><stop offset="1" stop-color="#d0d7ce"/></linearGradient><linearGradient id="linear-gradient-31" x1="1409.85" y1="2383.74" x2="1518.55" y2="2383.74" gradientTransform="matrix(-1, 0.02, -0.02, -1, 1767.12, 2608.17)" gradientUnits="userSpaceOnUse"><stop offset="0" stop-color="#c3d1d4"/><stop offset="0.49" stop-color="#b4c5b7"/><stop offset="1" stop-color="#a2b795"/></linearGradient><linearGradient id="linear-gradient-32" x1="1462.35" y1="2364.75" x2="1523.73" y2="2364.75" gradientTransform="matrix(-1, 0.02, -0.02, -1, 1767.12, 2608.17)" gradientUnits="userSpaceOnUse"><stop offset="0.01" stop-color="#a4bdbf"/><stop offset="0.19" stop-color="#98abb1"/><stop offset="0.45" stop-color="#8b98a1"/><stop offset="0.71" stop-color="#848c98"/><stop offset="0.98" stop-color="#818895"/></linearGradient><linearGradient id="linear-gradient-33" x1="1518.55" y1="2375.06" x2="1567.87" y2="2375.06" xlink:href="#linear-gradient-27"/></defs><title>logo</title><g class="cls-1"><g id="Layer_2" data-name="Layer 2"><g id="OBJECTS"><polygon class="cls-2" points="259.64 550 289.25 503.52 263.34 459.93 259.64 550"/><polygon class="cls-3" points="263.34 459.93 289.25 503.52 363.59 542.31 263.34 459.93"/><polygon class="cls-3" points="259.64 550 307.94 570.28 289.25 503.52 259.64 550"/><polygon class="cls-4" points="289.25 503.52 363.59 542.31 307.94 570.28 289.25 503.52"/><polygon class="cls-3" points="259.64 550 212.31 550.9 263.34 459.93 259.64 550"/><polygon class="cls-5" points="148.98 448.83 169.19 565.1 140.72 525.2 148.98 448.83"/><polygon class="cls-6" points="0 155.95 92.44 461.41 148.98 448.83 0 155.95"/><polygon class="cls-7" points="142.77 507.94 148.9 448.14 92.69 461.19 142.77 507.94"/><polygon class="cls-8" points="155.88 214.4 148.98 448.83 0 155.95 155.88 214.4"/><polygon class="cls-8" points="199.75 416.74 228.74 223.98 155.88 214.4 199.75 416.74"/><polygon class="cls-7" points="212.31 550.9 169.19 565.1 148.98 448.83 212.31 550.9"/><polygon class="cls-7" points="212.31 550.9 263.34 459.93 199.75 416.74 212.31 550.9"/><polygon class="cls-9" points="263.34 459.93 228.74 223.98 199.75 416.74 263.34 459.93"/><polygon class="cls-10" points="228.74 223.98 324.05 325.77 263.34 459.93 228.74 223.98"/><polygon class="cls-11" points="363.59 542.31 398.25 477.83 263.34 459.93 363.59 542.31"/><polygon class="cls-12" points="263.34 459.93 398.25 477.83 324.05 325.77 263.34 459.93"/><polygon class="cls-13" points="228.74 223.98 228.74 223.98 324.05 325.77 300.59 223.98 228.74 223.98"/><polygon class="cls-14" points="461.67 330.16 324.05 325.77 398.25 477.83 461.67 330.16 461.67 330.16"/><polygon class="cls-10" points="396.69 243.34 324.05 325.77 461.67 330.16 396.69 243.34"/><polygon class="cls-9" points="511.58 214.4 396.69 243.34 461.67 330.16 482.17 270.13 511.58 214.4"/><polygon class="cls-8" points="551.56 149.29 403.54 209 396.69 243.34 511.58 214.4 551.56 149.29"/><polygon class="cls-15" points="324.05 325.77 403.54 209 396.69 243.34 324.05 325.77"/><polygon class="cls-8" points="300.59 223.98 403.54 209 324.05 325.77 300.59 223.98"/><polygon class="cls-9" points="148.98 448.83 199.75 416.74 155.88 214.4 148.98 448.83"/><polygon class="cls-5" points="212.31 550.9 199.59 416.55 148.98 448.83 212.31 550.9"/><polygon class="cls-2" points="143.02 508.15 141.49 525.2 116.71 483.51 143.02 508.15"/><polygon class="cls-16" points="0 155.95 88.17 134.86 155.88 214.4 0 155.95"/><polygon class="cls-17" points="88.17 134.86 295.28 117.77 228.74 223.98 88.17 134.86"/><polygon class="cls-16" points="295.28 117.77 300.59 223.98 403.54 209 295.28 117.77"/><polygon class="cls-18" points="295.28 117.77 551.56 149.29 403.54 209 295.28 117.77"/><polygon class="cls-19" points="88.17 134.86 228.74 223.98 155.88 214.4 88.17 134.86"/><polygon class="cls-20" points="295.28 117.77 300.59 223.98 228.74 223.98 295.28 117.77"/><polygon class="cls-21" points="149.16 159.73 154.3 80.9 186.07 92.61 149.16 159.73"/><polygon class="cls-22" points="188.98 58.06 186.07 92.61 154.3 80.9 188.98 58.06"/><polygon class="cls-23" points="228.41 47.99 186.07 92.61 225.87 100.04 228.41 47.99"/><polygon class="cls-22" points="188.98 58.06 209.43 66.91 186.07 92.61 188.98 58.06"/><polygon class="cls-24" points="209.31 68.48 220.82 0 188.98 58.06 209.31 68.48"/><polygon class="cls-25" points="228.41 47.99 220.82 0 209.31 68.48 228.41 47.99"/><polygon class="cls-26" points="149.16 159.73 213.34 126.55 186.07 92.61 149.16 159.73"/><polygon class="cls-27" points="212.43 81.78 213.34 126.55 277.82 107.22 212.43 81.78"/><polygon class="cls-28" points="266 57.52 228.41 47.99 227.03 75.31 266 57.52"/><polygon class="cls-29" points="149.16 159.73 198.89 179.36 213.34 126.55 149.16 159.73"/><polygon class="cls-30" points="261.49 145.65 213.34 126.55 198.89 179.36 261.49 145.65"/><polygon class="cls-31" points="277.82 107.22 261.49 145.65 213.34 126.55 277.82 107.22"/><polygon class="cls-32" points="314.37 43.16 228.41 47.99 266 57.52 314.37 43.16"/><polygon class="cls-33" points="284.31 49.43 212.43 81.78 277.82 107.22 284.31 49.43"/><polygon class="cls-34" points="284.31 49.43 345.35 104.31 277.82 107.22 284.31 49.43"/><polygon class="cls-35" points="198.89 179.36 307.61 179.35 261.49 145.65 198.89 179.36"/><polygon class="cls-36" points="277.82 107.22 307.61 179.35 261.49 145.65 277.82 107.22"/><polygon class="cls-37" points="314.37 43.16 345.35 104.31 286.67 51.39 314.37 43.16"/><polygon class="cls-38" points="374.23 157.32 307.61 179.35 277.82 107.22 374.23 157.32"/><polygon class="cls-39" points="345.35 104.31 374.23 157.32 277.82 107.22 345.35 104.31"/><polygon class="cls-40" points="345.35 104.31 360.51 76.08 323.21 60.57 345.35 104.31"/><polygon class="cls-41" points="398.1 141.62 374.23 157.32 345.35 104.31 398.1 141.62"/><polygon class="cls-42" points="360.51 76.08 345.35 104.31 398.1 141.62 360.51 76.08"/><polygon class="cls-43" points="154.3 80.9 188.98 58.06 186.07 92.61 154.3 80.9"/><polygon class="cls-44" points="188.98 58.06 186.07 92.61 209.35 68.25 188.98 58.06"/><polygon class="cls-45" points="186.07 92.61 213.34 126.55 212.75 97.48 186.07 92.61"/><polygon class="cls-46" points="278.96 45.15 228.41 47.99 220.82 0 278.96 45.15"/><polygon class="cls-47" points="198.72 62.84 209.35 68.25 220.82 0 198.72 62.84"/><g class="cls-48"><polygon class="cls-49" points="398.1 139.42 374.23 155.13 330.42 464.13 398.1 139.42"/><polygon class="cls-50" points="327.49 258.18 330.42 464.13 374.23 155.13 327.49 258.18"/><polygon class="cls-51" points="258.27 333.15 327.49 258.18 330.42 464.13 258.27 333.15"/><polygon class="cls-52" points="374.23 155.13 307.61 177.16 327.49 258.18 374.23 155.13"/><polygon class="cls-53" points="258.27 333.15 307.61 177.16 327.49 258.18 258.27 333.15"/><polygon class="cls-54" points="198.89 177.16 307.61 177.16 258.27 333.15 198.89 177.16"/><polygon class="cls-55" points="197.67 372.38 198.89 177.16 258.27 333.15 197.67 372.38"/><polygon class="cls-56" points="149.16 157.54 198.89 177.16 197.67 372.38 149.16 157.54"/></g><polygon class="cls-57" points="92.69 461.19 127.36 415.57 147.86 419.48 199.59 416.55 148.98 448.83 92.69 461.19"/><g class="cls-58"><polygon class="cls-59" points="242.73 197.97 198.73 200.11 233.48 199.59 242.73 197.97"/><polygon class="cls-59" points="364.19 212.85 320.2 214.99 354.95 214.47 364.19 212.85"/><polygon class="cls-59" points="369.18 194.33 325.18 196.47 359.93 195.94 369.18 194.33"/><polygon class="cls-59" points="366.24 170.56 351.12 171.11 363 171.57 366.24 170.56"/><polygon class="cls-59" points="283.12 188.56 207.22 190.44 255.07 191.69 283.12 188.56"/><polygon class="cls-59" points="260.34 182.48 199.81 184.37 235.76 184.62 260.34 182.48"/><polygon class="cls-59" points="350.55 201.75 224.4 205.53 294.98 206.79 350.55 201.75"/></g><g class="cls-60"><polygon class="cls-59" points="108.79 167.61 64.79 169.75 99.54 169.23 108.79 167.61"/><polygon class="cls-59" points="149.18 158.19 73.28 160.08 121.13 161.33 149.18 158.19"/><polygon class="cls-61" points="126.4 152.12 65.87 154.01 101.82 154.26 126.4 152.12"/></g><g class="cls-60"><polygon class="cls-59" points="430.74 178.43 401.36 179.85 424.56 179.5 430.74 178.43"/><polygon class="cls-59" points="457.71 172.14 407.02 173.4 438.98 174.23 457.71 172.14"/><polygon class="cls-59" points="442.5 168.08 402.08 169.34 426.09 169.51 442.5 168.08"/></g><g class="cls-60"><polygon class="cls-59" points="421.38 159.56 377.39 161.7 412.14 161.17 421.38 159.56"/><polygon class="cls-59" points="461.77 150.14 385.87 152.03 433.72 153.28 461.77 150.14"/><polygon class="cls-59" points="439 144.07 378.46 145.96 414.42 146.21 439 144.07"/></g><g class="cls-62"><polygon class="cls-59" points="165.5 187.88 130.13 189.61 158.07 189.19 165.5 187.88"/><polygon class="cls-59" points="197.98 180.31 136.95 181.83 175.43 182.84 197.98 180.31"/><polygon class="cls-59" points="179.67 175.43 130.99 176.95 159.9 177.15 179.67 175.43"/></g></g></g></g></svg>